<svg width="198" height="62" viewBox="0 0 198 62" xmlns="http://www.w3.org/2000/svg"><title>blackbox logo</title><g fill="#333" fill-rule="evenodd"><g fill-rule="nonzero"><path d="M192 0v60h6V0M0 0v60h6V0"/><path d="M0 6h198V0H0m6 60h32v-6H6m154 6h32v-6h-32"/></g><path d="M23 38.424V21.432h6.336c2.976 0 6.216.624 6.216 4.32 0 1.896-1.176 3.192-2.928 3.744v.048c2.232.288 3.72 1.944 3.72 4.152 0 3.552-3.36 4.728-6.384 4.728H23zM26.744 24.6v3.624h2.712c1.152 0 2.352-.48 2.352-1.848 0-1.416-1.344-1.776-2.52-1.776h-2.544zm0 6.792v3.864h3.36c1.176 0 2.496-.504 2.496-1.992 0-1.608-1.8-1.872-3.024-1.872h-2.832zm14.952 7.032h10.68v-3.456H45.44V21.432h-3.744v16.992zm14.992 0l7.344-16.992h3.096l7.392 16.992h-4.224l-1.464-3.6h-6.6l-1.416 3.6h-4.128zm10.872-6.768l-2.088-5.28-2.064 5.28h4.152zm24.656-8.16C90.776 21.648 88.376 21 86.48 21c-5.304 0-9.168 3.48-9.168 8.928s3.864 8.928 9.168 8.928c2.328 0 4.728-.936 6.144-2.952l-3.12-2.328C88.736 34.728 87.512 35.4 86 35.4c-2.712 0-4.8-2.304-4.8-5.472 0-3.168 2.088-5.472 4.92-5.472 1.392 0 2.472.504 3.216 1.392l2.88-2.352zm5.592 14.928h3.744V30.36l6.912 8.064h5.232l-8.208-9.096 7.56-7.896h-4.896l-6.6 7.056v-7.056h-3.744v16.992zm20.184 0V21.432h6.336c2.976 0 6.216.624 6.216 4.32 0 1.896-1.176 3.192-2.928 3.744v.048c2.232.288 3.72 1.944 3.72 4.152 0 3.552-3.36 4.728-6.384 4.728h-6.96zm3.744-13.824v3.624h2.712c1.152 0 2.352-.48 2.352-1.848 0-1.416-1.344-1.776-2.52-1.776h-2.544zm0 6.792v3.864h3.36c1.176 0 2.496-.504 2.496-1.992 0-1.608-1.8-1.872-3.024-1.872h-2.832zm13.896-1.464c0-5.448 3.864-8.928 9.168-8.928 5.304 0 9.168 3.48 9.168 8.928s-3.864 8.928-9.168 8.928c-5.304 0-9.168-3.48-9.168-8.928zm3.888 0c0 3.168 2.088 5.472 5.28 5.472s5.28-2.304 5.28-5.472c0-3.168-2.088-5.472-5.28-5.472s-5.28 2.304-5.28 5.472zm17.264 8.496h4.44l4.032-6.84 4.152 6.84h4.704l-6.144-8.952 5.496-8.04h-4.536l-3.48 5.952-3.624-5.952h-4.704l5.616 8.112-5.952 8.88zM52 61.438v-9.204h3.237c2.353 0 2.95 1.417 2.95 2.574 0 1.157-.597 2.574-2.95 2.574h-1.99v4.056H52zm1.248-8.112v2.964h1.638c.988 0 1.976-.234 1.976-1.482s-.988-1.482-1.976-1.482h-1.638zm10.46 8.112h5.474v-1.17h-4.225v-8.034H63.71v9.204zm9.578 0l4.056-9.204h1.13l3.94 9.204h-1.456l-.923-2.275h-4.38l-.91 2.275h-1.457zm2.808-3.367h3.484l-1.716-4.22h-.026l-1.742 4.23zm13.438 3.37h1.248v-8.03h2.964v-1.17h-7.176v1.17h2.964v8.04zm9.538 0h1.248v-3.98h4.225v-1.17h-4.225v-2.88h4.537v-1.17H99.07v9.21zm15.687.24c-2.808 0-4.797-2.1-4.797-4.83s1.99-4.834 4.797-4.834c2.808 0 4.797 2.107 4.797 4.837 0 2.73-1.99 4.836-4.797 4.836zm0-1.17c2.106 0 3.47-1.65 3.47-3.66s-1.364-3.664-3.47-3.664-3.47 1.65-3.47 3.667c0 2.015 1.364 3.666 3.47 3.666zm10.59.94v-9.21h3.238c2.353 0 2.95 1.42 2.95 2.578 0 1.17-.87 2.273-2.26 2.43l2.612 4.2h-1.56l-2.34-4.058h-1.39v4.055h-1.25zm1.25-8.11v2.96h1.637c.988 0 1.976-.23 1.976-1.48s-.988-1.48-1.976-1.48h-1.638zm10.603 8.11h1.248v-7.57h.026l3.107 7.568h.84l3.11-7.57h.03v7.566h1.25v-9.21h-1.86l-2.896 6.97H142l-2.927-6.962h-1.86v9.205z"/></g></svg>